<svg xmlns="http://www.w3.org/2000/svg" width="24" height="24" fill="none" viewBox="0 0 24 24">
  <path fill="#171D26" d="M12 22c-.4 0-.783-.075-1.15-.225a2.942 2.942 0 0 1-.975-.65c-.483-.483-.9-.8-1.25-.95-.35-.15-.875-.225-1.575-.225a2.893 2.893 0 0 1-2.125-.875 2.893 2.893 0 0 1-.875-2.125c0-.7-.075-1.225-.225-1.575-.15-.35-.467-.767-.95-1.25a2.941 2.941 0 0 1-.65-.975A3.009 3.009 0 0 1 2 12c0-.4.075-.783.225-1.15a2.94 2.94 0 0 1 .65-.975c.483-.483.8-.9.95-1.25.15-.35.225-.875.225-1.575 0-.833.292-1.542.875-2.125A2.893 2.893 0 0 1 7.05 4.05c.7 0 1.225-.075 1.575-.225.35-.15.767-.467 1.25-.95.283-.283.608-.5.975-.65A3.01 3.01 0 0 1 12 2c.4 0 .783.075 1.15.225.367.15.692.367.975.65.483.483.9.8 1.25.95.35.15.875.225 1.575.225.833 0 1.542.292 2.125.875s.875 1.292.875 2.125c0 .7.075 1.225.225 1.575.15.35.467.767.95 1.25.283.283.5.608.65.975.15.367.225.75.225 1.15 0 .4-.075.783-.225 1.15a2.94 2.94 0 0 1-.65.975c-.483.483-.8.9-.95 1.25-.15.35-.225.875-.225 1.575 0 .833-.292 1.542-.875 2.125a2.893 2.893 0 0 1-2.125.875c-.7 0-1.225.075-1.575.225-.35.15-.767.467-1.25.95a2.94 2.94 0 0 1-.975.65A3.01 3.01 0 0 1 12 22Zm2.5-6c.417 0 .77-.146 1.063-.438.291-.291.437-.645.437-1.062 0-.417-.146-.77-.438-1.063A1.446 1.446 0 0 0 14.5 13c-.417 0-.77.146-1.063.438A1.446 1.446 0 0 0 13 14.5c0 .417.146.77.438 1.063.291.291.645.437 1.062.437Zm-5.75.25a.99.99 0 0 0 1.4 0l5.1-6.1a.99.99 0 1 0-1.4-1.4l-5.1 6.1a.99.99 0 0 0 0 1.4Zm1.813-5.688c.291-.291.437-.645.437-1.062 0-.417-.146-.77-.438-1.063A1.447 1.447 0 0 0 9.5 8c-.417 0-.77.146-1.063.438A1.447 1.447 0 0 0 8 9.5c0 .417.146.77.438 1.063.291.291.645.437 1.062.437.417 0 .77-.146 1.063-.438Z"/>
</svg>
