<svg xmlns="http://www.w3.org/2000/svg" width="24" height="24" fill="none" viewBox="0 0 24 24">
  <path fill="#171D26" d="M8.5 7c.417 0 .77.146 1.063.438.291.291.437.645.437 1.062 0 .417-.146.77-.438 1.063A1.447 1.447 0 0 1 8.5 10c-.417 0-.77-.146-1.063-.438A1.447 1.447 0 0 1 7 8.5c0-.417.146-.77.438-1.063A1.447 1.447 0 0 1 8.5 7Z"/>
  <path fill="#171D26" fill-rule="evenodd" d="M11.892 3.01a1.983 1.983 0 0 1 1.167.56l8.37 8.384.133.147c.123.15.217.316.283.494.087.237.13.475.13.713l-.007.177c-.017.177-.058.35-.123.523-.087.23-.226.44-.416.63l-6.801 6.792-.148.134a1.912 1.912 0 0 1-1.208.436l-.178-.009a1.967 1.967 0 0 1-1.03-.427l-.147-.134-8.395-8.384a1.877 1.877 0 0 1-.548-1.33V4.9c0-.457.144-.857.43-1.199l.13-.142C3.907 3.187 4.354 3 4.878 3h6.825l.189.01Zm-6.916 8.66 8.296 8.286 6.67-6.661L11.66 5H4.976v6.67Z" clip-rule="evenodd"/>
</svg>
