<svg xmlns="http://www.w3.org/2000/svg" width="24" height="24" fill="none" viewBox="0 0 24 24">
  <path fill="#171D26" fill-rule="evenodd" d="M12 23c-1.867 0-3.583-.425-5.15-1.275a11.144 11.144 0 0 1-3.85-3.4V20a1 1 0 1 1-2 0v-3.662a1.338 1.338 0 0 1 2.402-.811L4.525 17c.8 1.2 1.854 2.167 3.162 2.9C8.996 20.633 10.434 21 12 21c1.25 0 2.42-.238 3.512-.712a9.148 9.148 0 0 0 2.85-1.925 9.148 9.148 0 0 0 1.926-2.85 8.527 8.527 0 0 0 .66-2.515c.058-.549.5-.998 1.052-.998s1.005.449.957.999a10.51 10.51 0 0 1-.82 3.276 11.133 11.133 0 0 1-2.362 3.5c-1 1-2.167 1.788-3.5 2.363A10.68 10.68 0 0 1 12 23Zm-.9-4v-1.3c-.783-.183-1.42-.52-1.912-1.012S8.332 15.55 8.1 14.75l1.65-.65c.2.683.512 1.196.938 1.537.425.342.912.513 1.462.513.55 0 1.02-.13 1.412-.387.392-.259.588-.663.588-1.213 0-.483-.204-.875-.613-1.175-.408-.3-1.137-.642-2.187-1.025-.983-.35-1.704-.767-2.162-1.25-.459-.483-.688-1.117-.688-1.9 0-.683.238-1.304.713-1.862.475-.559 1.12-.921 1.937-1.088V5h1.75v1.25c.6.05 1.146.292 1.637.725.492.433.83.942 1.013 1.525l-1.6.65a2.2 2.2 0 0 0-.65-.963c-.3-.258-.717-.387-1.25-.387-.583 0-1.03.125-1.338.375-.308.25-.462.592-.462 1.025 0 .433.192.775.575 1.025.383.25 1.075.542 2.075.875 1.2.433 2 .942 2.4 1.525.4.583.6 1.225.6 1.925 0 .483-.083.908-.25 1.275-.167.367-.388.68-.662.938a3.305 3.305 0 0 1-.963.624c-.367.159-.758.28-1.175.363V19H11.1ZM2 12c-.552 0-1.005-.449-.957-.999.1-1.147.372-2.24.82-3.276a11.133 11.133 0 0 1 2.362-3.5c1-1 2.167-1.787 3.5-2.362A10.68 10.68 0 0 1 12 1c1.867 0 3.583.425 5.15 1.275 1.567.85 2.85 1.983 3.85 3.4V4a1 1 0 1 1 2 0v3.662a1.338 1.338 0 0 1-2.401.811L19.475 7c-.8-1.2-1.854-2.167-3.163-2.9C15.005 3.367 13.567 3 12 3c-1.25 0-2.42.237-3.512.712a9.148 9.148 0 0 0-2.85 1.925 9.148 9.148 0 0 0-1.925 2.85 8.53 8.53 0 0 0-.66 2.515c-.06.549-.5.998-1.053.998Z" clip-rule="evenodd"/>
</svg>
